Genre:Drama 
Language:English
IMDb:http://www.imdb.com/title/tt1037218/
Source:Bluray.x264.DD5.1-NoGrp


Format : MPEG-4
Format profile : Base Media
Codec ID : isom
File size : 1.73 GiB
Duration : 1h 53mn
Overall bit rate : 2 174 Kbps


Video
Format settings, CABAC : Yes
Format settings, ReFrames : 3 frames
Format settings, GOP : N=1
Codec ID : avc1
Codec ID/Info : Advanced Video Coding
Duration : 1h 53mn
Bit rate mode : Variable
Bit rate : 1 751 Kbps
Maximum bit rate : 15.3 Mbps
Width : 1 280 pixels
Height : 528 pixels
Display aspect ratio : 2.40:1
Frame rate mode : Constant
Frame rate : 23.976 fps
Color space : YUV
Chroma subsampling : 4:2:0
Bit depth : 8 bits
Scan type : Progressive
Bits/(Pixel*Frame) : 0.108
Stream size : 1.39 GiB (80%)
Writing library : x264


Audio
ID : 2
Format : AAC
Format/Info : Advanced Audio Codec
Format version : Version 4
Format profile : LC
Format settings, SBR : No
Codec ID : 40
Duration : 1h 53mn
Bit rate mode : Variable
Bit rate : 422 Kbps
Maximum bit rate : 538 Kbps
Channel(s) : 6 channels
Channel positions : Front: L C R, Side: L R, LFE
Sampling rate : 48.0 KHz
Stream size : 344 MiB (19%)


Plot:
A fading Hollywood star looks back at the days of his youth as he returns home from his best friend's funeral.






================================== 
http://thepiratebay.org/user/hiest
==================================






Screen Shots:
 
http://images1.shareimage.org/images/vyj1eawfkynkltgrfue.png
 
http://images3.shareimage.org/images/9eqty4kg234vzcxqzd2.png


 
http://images1.shareimage.org/images/x6g8zbtb9okatz23gizj.png

